<?xml version="1.0" encoding="UTF-8" standalone="no"?>
<!-- Generator: visioncortex VTracer -->

<svg
   id="svg"
   version="1.1"
   style="display: block;"
   viewBox="0 0 929 929"
   sodipodi:docname="export-2026-05-03 012552.svg"
   inkscape:version="1.3-dev (38c78120, 2022-04-12)"
   xmlns:inkscape="http://www.inkscape.org/namespaces/inkscape"
   xmlns:sodipodi="http://sodipodi.sourceforge.net/DTD/sodipodi-0.dtd"
   xmlns="http://www.w3.org/2000/svg"
   xmlns:svg="http://www.w3.org/2000/svg">
  <defs
     id="defs19" />
  <sodipodi:namedview
     id="namedview17"
     pagecolor="#505050"
     bordercolor="#eeeeee"
     borderopacity="1"
     inkscape:pageshadow="0"
     inkscape:pageopacity="0"
     inkscape:pagecheckerboard="0"
     inkscape:deskcolor="#505050"
     showgrid="false"
     inkscape:zoom="0.78169932"
     inkscape:cx="380.58112"
     inkscape:cy="402.32861"
     inkscape:window-width="2560"
     inkscape:window-height="1341"
     inkscape:window-x="-9"
     inkscape:window-y="-9"
     inkscape:window-maximized="1"
     inkscape:current-layer="svg" />
  <path
     d="m 175.70459,322.38965 c 9.10159,18.41853 14.91669,36.47561 15.08838,57.02832 l 0.0315,3.40552 c -0.0632,5.76704 -0.25385,10.03736 -3.46899,14.90698 -23.89975,1.75447 -47.55133,-9.63972 -69,-19 -57.121029,-20.49758 -108.6369271,-26.91418 -155.9928,-26.35665 -5.481687,0.0645 -4.575597,356.62563 -9.948043,356.86605 -44.950895,2.0115 -135.679467,52.38979 -176.271877,-42.9105 -14.8886,-34.95454 9.65807,-334.00633 -3.97359,-331.90706 -60.83381,9.36837 -108.15897,30.07514 -166.81751,50.2234 l -13.61531,5.91874 c -2.11723,0.73165 -4.23442,1.46342 -6.35156,2.19532 -8.62756,2.94084 -16.40331,5.27412 -25.5918,5.0957 l -3.69141,-0.0547 -2.74609,-0.0703 c -6.36918,-9.70623 -4.19793,-26.125 -2.22656,-37.05469 5.57649,-55.4951 77.14296,-126.01729 139.51243,-151.72336 32.91635,-13.56673 53.58305,-24.75263 90.08699,-28.14179 6.56794,-0.60979 7.22077,-46.7477 13.51495,-49.03251 40.42286,-14.67363 107.600778,-18.43072 153.04286,-1.49163 9.376677,3.49527 10.581913,45.34347 18.750272,47.34026 100.398673,24.54282 174.637158,66.46169 209.668178,144.7629 z"
     transform="translate(596.64453,106.26953)"
     style="fill:#fefdfd"
     id="path2"
     sodipodi:nodetypes="cccccsssscccccccssssscc" />
  <path
     d="M 0,0 C 2.4375,2.0625 2.4375,2.0625 5,5 L 6.8320312,6.6445312 C 9.8476604,9.3653535 11.753977,11.339623 13.1875,15.1875 c -0.232957,4.736801 -1.641414,8.554322 -3.375,12.945312 -1.1707321,4.131334 -0.5485971,6.503045 1.464844,10.234375 L 12.9375,40.875 14.839844,43.773437 17,47 c 0.814026,1.221205 1.627819,2.442565 2.441406,3.664062 1.28075,1.921248 2.562508,3.841783 3.847412,5.760254 3.182748,4.757345 6.284005,9.561413 9.336182,14.403809 C 33.726138,72.567422 34.858118,74.287177 36,76 c 0.03543,2.964542 -0.04901,5.800651 -0.25,8.75 l -0.121094,2.324219 c -0.295107,4.921115 -0.861734,9.770105 -1.547363,14.651611 -1.077773,7.8883 -1.873278,15.7942 -2.633892,23.71842 -1.548111,16.07601 -3.245355,32.13371 -5.033589,48.18466 l -0.339475,3.04729 c -0.577055,5.17407 -1.156078,10.34792 -1.7363,15.52165 -0.728748,6.49858 -1.453446,12.99761 -2.177398,19.49673 -0.953109,8.55469 -1.906812,17.10931 -2.861573,25.66382 l -0.338702,3.035 c -0.509199,4.56261 -1.01851,9.1252 -1.528058,13.68778 -0.917907,8.22077 -1.832448,16.4419 -2.739258,24.66391 -0.250924,2.26835 -0.503448,4.53652 -0.75769,6.8045 -0.340599,3.03903 -0.675935,6.0786 -1.009827,9.11838 l -0.291824,2.56753 C 12.097358,302.18749 11.717815,307.01974 12,312 c 2.235627,2.42009 2.235627,2.42009 5.3125,3.9375 l 2.988281,1.71484 C 25.843408,320.41965 30.899424,320.60307 37,320 c 5.766876,-2.51645 7.771039,-6.40616 10,-12 0.709059,-1.98537 1.394217,-3.98072 2,-6 14.716827,7.14731 22.338884,22.29488 27.542969,37.26562 1.778394,5.43493 3.369456,10.81543 4.207031,16.48438 1.90661,9.38916 10.810465,17.71887 18.25,23.25 2.79143,1.86303 2.79143,1.86303 5,3 l 0.80859,-2.67188 c 3.74809,-10.47007 11.61464,-18.47251 19.14454,-26.3789 10.75048,-11.66194 13.00956,-25.70773 14.31323,-41.0332 C 138.792,306.208 138.792,306.208 141,304 c 8.08348,-0.6665 14.62939,3.17352 20.61328,8.19141 1.69315,1.52257 3.37055,3.06295 5.02734,4.625 2.3658,2.18953 4.82082,4.19865 7.35938,6.18359 2.92203,-1.55046 4.25264,-2.27612 6,-5 0.20949,-2.90838 0.20949,-2.90838 -0.19531,-6.17969 l -0.35816,-3.79443 C 179.30011,306.68365 179.15124,305.34169 179,304 l -0.43677,-3.9751 c -0.3912,-3.45197 -0.80836,-6.9004 -1.23312,-10.34839 -1.23518,-10.04594 -2.43919,-20.08753 -3.26761,-30.17651 -0.84235,-10.00921 -2.04187,-19.96741 -3.25,-29.9375 -2.5155,-20.7783 -4.84672,-41.57579 -7.13965,-62.37964 l -0.22281,-2.02139 -0.22293,-2.02248 -0.22295,-2.02263 c -0.1486,-1.34837 -0.29715,-2.69674 -0.44563,-4.04511 -1.09187,-9.91167 -2.20887,-19.8202 -3.33978,-29.7275 -0.41875,-3.68928 -0.83695,-7.37862 -1.25491,-11.06799 -0.26451,-2.32374 -0.53113,-4.64723 -0.79999,-6.97046 -0.37135,-3.21054 -0.73516,-6.42185 -1.09744,-9.633425 l -0.33033,-2.800903 C 154.5156,85.897197 153.82919,78.021582 160.375,68.75 l 1.63867,-2.449951 c 1.10684,-1.650035 2.22432,-3.292977 3.35254,-4.928467 1.53181,-2.223544 3.03089,-4.464716 4.5166,-6.719238 C 172.23349,51.086563 174.61301,47.541574 177,44 c 4.48451,-5.869205 4.48451,-5.869205 5.8125,-12.75 -0.80201,-3.208033 -1.87423,-6.099903 -3.19141,-9.125 C 178.75333,19.156049 178.60434,17.092969 179,14 c 1.39433,-2.538156 3.16392,-4.6359581 5.0625,-6.8125 l 1.41211,-1.7714844 c 2.37731,-2.7913168 4.02521,-4.2404007 7.5293,-5.4707031 49.60004,5.9632086 109.42674,27.5416055 150.156,49.2933995 -0.25718,3.536236 -0.91145,4.642304 -1.67944,8.101132 -2.55984,11.952042 -4.01816,26.913712 2.77344,37.640625 3.46868,4.583957 7.15712,6.787321 12.74609,8.019531 6.14642,0.84363 11.43195,-1.21105 17.20703,-3.125 C 377,99 377,99 379,99 c 0.95308,7.4965 1.31502,14.94976 1.5625,22.5 l 0.12646,3.79761 C 380.98168,134.53851 381.1963,143.75463 381,153 l -0.0703,3.32178 C 380.20475,187.71226 379.07176,219.71634 370,250 l -0.8457,2.86279 C 361.92855,276.90287 352.2958,299.94769 337,320 c -0.84126,1.14219 -1.68111,2.28541 -2.51953,3.42969 -31.51697,42.50925 -77.33324,61.65538 -125.94507,78.15552 -1.51182,0.5132 -3.02362,1.02646 -4.5354,1.53979 l -2.2554,0.76572 C 172.57296,413.81534 143.48389,425.51751 120,446 l -2.54687,1.96484 C 110.34894,453.8586 105.47389,462.03512 101,470 c -3.461085,-1.48444 -5.685136,-3.4463 -8.3125,-6.125 l -2.417969,-2.46484 C 88.397916,459.42257 86.624689,457.4058 84.875,455.3125 76.745844,445.85381 67.033138,437.37129 57,430 55.784008,429.07964 54.569285,428.1576 53.355469,427.23437 25.458019,406.06148 -4.458378,390.54217 -36.32843,376.22577 -46.776165,371.52958 -56.993463,366.58148 -67,361 l -3.0625,-1.62891 C -96.116398,345.51187 -118.80485,326.03781 -136,302 l -2.12109,-2.96484 C -159.43135,268.08752 -173.66077,232.71492 -181,196 l -0.49072,-2.38867 c -2.118,-10.50681 -3.15292,-21.14237 -4.19678,-31.79883 l -0.20297,-2.06674 C -186.53101,153.13841 -187.07442,146.64359 -187,140 c 3.21941,1.10667 5.83533,2.5318 8.625,4.4375 8.60388,5.43572 18.36825,6.55161 28.375,5.5625 7.73495,-2.05174 12.80717,-6.86184 17.375,-13.3125 5.61832,-10.11298 5.69617,-23.38316 2.78906,-34.31641 -5.57397,-16.142063 -14.86229,-26.512568 -28.54272,-36.137203 C -162.64329,63.204739 -165.8203,60.163749 -169,56 c 3.03499,-2.458653 6.05971,-4.063297 9.62891,-5.636719 l 3.35791,-1.487793 3.57568,-1.562988 c 1.22584,-0.539028 2.45158,-1.078255 3.67725,-1.617676 C -145.17737,44.120968 -141.58916,42.559498 -138,41 l 2.85205,-1.243652 c 10.19917,-4.432814 20.47413,-8.422239 31.00024,-12.008057 2.47334,-0.861744 4.928633,-1.767802 7.385991,-2.674072 5.933374,-2.165861 11.928229,-4.105387 17.949219,-6.011719 l 3.056641,-0.974609 c 2.112604,-0.672374 4.226421,-1.340946 6.341308,-2.006104 2.380827,-0.754286 4.757165,-1.522826 7.129883,-2.302246 C -52.145403,10.476521 -41.923144,8.0384558 -31.5,5.8125 c 2.378412,-0.5148214 4.756368,-1.0316921 7.134155,-1.5493927 1.459907,-0.3171413 2.920243,-0.6323208 4.381104,-0.9450378 3.447522,-0.7419859 6.873658,-1.5315142 10.2913816,-2.40132145 C -6.1531297,0.03800913 -3.6012613,-0.56019621 0,0 Z"
     transform="translate(371,435)"
     style="fill:#ef273a;fill-opacity:1"
     id="path4"
     sodipodi:nodetypes="cccccccccccccccccscscssccscccccccccccccccccccccccccccsccscccccccccccccccccccccccccccccccsscccccccccccscccccccccccccccccccccccccccccc" />
  <path
     d="M0 0 C0.77102051 0.22228271 1.54204102 0.44456543 2.33642578 0.67358398 C4.83164911 1.39691332 7.32219679 2.1349233 9.8125 2.875 C10.66763184 3.12620605 11.52276367 3.37741211 12.40380859 3.63623047 C17.47315062 5.12542681 22.52994715 6.65060464 27.58007812 8.20361328 C29.60352884 8.81215325 31.6326863 9.38063914 33.671875 9.93359375 C34.74953125 10.24425781 35.8271875 10.55492187 36.9375 10.875 C37.84757812 11.1225 38.75765625 11.37 39.6953125 11.625 C42.78177396 13.44726507 42.84401414 15.46956774 43.8125 18.875 C44.35235348 21.32281023 44.85222606 23.77964577 45.3203125 26.2421875 C45.45065887 26.92177521 45.58100525 27.60136292 45.71530151 28.30154419 C46.12653734 30.45031865 46.53210715 32.60011638 46.9375 34.75 C47.21707261 36.21621744 47.4970169 37.68236407 47.77734375 39.1484375 C48.46002758 42.72314981 49.13763781 46.29880179 49.8125 49.875 C57.25164593 51.50284627 64.67155117 53.08525075 72.1875 54.3125 C80.51177953 55.74005744 88.66077093 57.67736039 96.8125 59.875 C97.74126953 60.12266113 98.67003906 60.37032227 99.62695312 60.62548828 C119.38139628 65.91889343 138.25133643 72.12014471 156.9375 80.4375 C157.55524292 80.71104309 158.17298584 80.98458618 158.80944824 81.26641846 C166.48049692 84.67881485 173.68850242 88.44342491 180.8125 92.875 C182.61643029 93.86986638 184.42706223 94.85290556 186.25 95.8125 C225.20509016 116.97664815 264.74256984 153.1894796 279.8125 195.875 C280.8715526 199.61775092 281.73648176 203.38729661 282.5625 207.1875 C282.89314453 208.63092773 282.89314453 208.63092773 283.23046875 210.10351562 C284.20206734 214.46363972 284.93447461 218.38943386 284.8125 222.875 C283.44544922 222.18277344 283.44544922 222.18277344 282.05078125 221.4765625 C224.32881354 192.3653389 164.00888764 168.2866045 100.25 156.3125 C98.97995117 156.07313721 97.70990234 155.83377441 96.40136719 155.5871582 C92.87816868 154.9572088 89.35239796 154.40210632 85.8125 153.875 C84.64912109 153.67221436 83.48574219 153.46942871 82.28710938 153.26049805 C76.2531442 152.32556616 76.2531442 152.32556616 70.59643555 154.0793457 C68.63036085 155.86470273 67.05362706 157.70648901 65.4375 159.8125 C64.55312256 160.85929932 64.55312256 160.85929932 63.65087891 161.92724609 C62.00403455 163.88472961 60.40724535 165.87509438 58.8125 167.875 C57.61321369 169.25789797 56.40728239 170.6351464 55.1875 172 C54.67960937 172.59039062 54.17171875 173.18078125 53.6484375 173.7890625 C51.08758113 176.69863123 48.44837983 179.53345566 45.8125 182.375 C42.6008665 185.83783368 39.40147047 189.30148515 36.3125 192.875 C32.71167386 197.04066161 28.95859026 201.06100048 25.21484375 205.09765625 C22.53834071 207.98881617 19.88931276 210.89398132 17.3125 213.875 C14.22352259 217.44852289 11.02398502 220.91201906 7.8125 224.375 C2.79783086 229.7852794 -2.17288898 235.22389338 -6.87109375 240.9140625 C-7.40863281 241.56117188 -7.94617188 242.20828125 -8.5 242.875 C-9.20576172 243.74125 -9.20576172 243.74125 -9.92578125 244.625 C-11.1875 245.875 -11.1875 245.875 -13.1875 245.875 C-14.4921875 244.58203125 -14.4921875 244.58203125 -16.0625 242.6875 C-19.30672388 238.86877814 -22.652711 235.16993493 -26.0625 231.5 C-30.3831829 226.83893208 -34.6611977 222.1439218 -38.90234375 217.41015625 C-41.52023103 214.50586763 -44.16501278 211.62727421 -46.8125 208.75 C-49.77013262 205.53461285 -52.70747946 202.30730103 -55.5625 199 C-58.84767115 195.20697631 -62.26509354 191.54365044 -65.6875 187.875 C-69.65842149 183.61836859 -73.57995127 179.33797937 -77.3828125 174.9296875 C-80.24232149 171.67405605 -83.17708856 168.48561509 -86.14111328 165.32495117 C-88.25499582 163.05820973 -90.24008441 160.80258688 -92.0625 158.29296875 C-93.65898811 156.1016353 -94.96798101 154.43428233 -97.1875 152.875 C-101.03452194 152.34587886 -104.40730602 153.14688876 -108.1875 153.875 C-110.20193949 154.18362118 -112.21764349 154.48407339 -114.234375 154.77734375 C-181.85917493 165.0899105 -246.45333402 191.1948543 -307.1875 221.875 C-306.82066502 213.21769438 -305.01462537 205.07393465 -302.70947266 196.76171875 C-302.25146199 195.10619658 -301.81714311 193.44415778 -301.38671875 191.78125 C-296.20456028 173.90157528 -283.46029429 158.46273654 -271.1875 144.875 C-270.548125 144.1325 -269.90875 143.39 -269.25 142.625 C-261.14539428 133.3285405 -252.10466791 124.33873281 -242.01953125 117.18359375 C-239.96778055 115.71805754 -238.02532698 114.14496197 -236.0625 112.5625 C-230.60502153 108.30529171 -224.78742446 104.63811274 -218.92675781 100.97167969 C-217.35423052 99.98013103 -215.79719795 98.96411245 -214.2421875 97.9453125 C-203.40134451 90.97826407 -191.80088596 85.4216918 -180.1875 79.875 C-179.41792969 79.50375 -178.64835938 79.1325 -177.85546875 78.75 C-153.29767505 67.08618704 -126.1947981 60.1158216 -99.6875 54.625 C-98.750271 54.43028107 -97.81304199 54.23556213 -96.84741211 54.03494263 C-94.18150014 53.48674672 -91.51356884 52.95068856 -88.84375 52.421875 C-88.05476318 52.263134 -87.26577637 52.10439301 -86.45288086 51.94084167 C-82.29961924 51.14337583 -78.44026596 50.70779435 -74.1875 50.875 C-72.06541801 42.49202362 -70.50838837 34.1563511 -69.3659668 25.58862305 C-68.64456022 20.56508651 -67.77556648 16.28429845 -65.1875 11.875 C-62.45703125 10.5625 -62.45703125 10.5625 -59 9.875 C-57.65651555 9.57888298 -56.31413684 9.27772281 -54.97265625 8.97265625 C-54.22258301 8.80781738 -53.47250977 8.64297852 -52.69970703 8.47314453 C-47.72384046 7.2884144 -42.83836814 5.77180052 -37.9375 4.3125 C-34.98539959 3.44050085 -32.03232666 2.5725139 -29.07617188 1.71435547 C-27.13212344 1.1494773 -25.19072579 0.57540403 -23.25195312 -0.00732422 C-14.78558806 -2.47066081 -8.39271944 -2.50133381 0 0 Z "
     transform="translate(479.1875,257.125)"
     style="fill: #010101;"
     id="path6" />
  <path
     d="M0 0 C21.1448188 20.10544215 31.1387771 49.50033825 35.35546875 77.73046875 C32.43355368 74.98043103 29.91018108 72.22322536 27.54296875 68.98046875 C22.13994078 61.72652943 16.91173769 55.74496722 9.29296875 50.79296875 C8.71546875 50.415354 8.13796875 50.03773926 7.54296875 49.64868164 C0.99877197 45.58174529 -5.9937613 43.5486425 -13.64453125 44.73046875 C-20.11484709 46.8036698 -24.56052463 49.63628299 -27.75 55.7109375 C-33.7053592 69.15600609 -30.33951482 83.40500068 -25.64453125 96.73046875 C-17.74602312 116.57788924 -4.3139292 135.43896536 15.35546875 144.73046875 C21.36775716 147.24697583 27.29789948 147.60318953 33.48046875 145.48046875 C39.64439867 142.89828189 42.71796968 139.69112254 45.55859375 133.73046875 C47.23939373 129.51199036 47.60122726 125.50534724 47.91796875 120.98046875 C48.00175781 119.81 48.08554687 118.63953125 48.171875 117.43359375 C48.23246094 116.5415625 48.29304688 115.64953125 48.35546875 114.73046875 C55.8615998 115.12070198 62.36779814 116.74372401 69.41796875 119.29296875 C70.92025024 119.82869507 70.92025024 119.82869507 72.45288086 120.37524414 C94.69662065 128.46920293 116.07349221 140.22734397 132.35546875 157.73046875 C133.18046875 158.55546875 134.00546875 159.38046875 134.85546875 160.23046875 C135.68046875 161.05546875 136.50546875 161.88046875 137.35546875 162.73046875 C137.85433594 163.17132813 138.35320312 163.6121875 138.8671875 164.06640625 C156.85032555 180.58238852 166.64423662 207.32877473 171.35546875 230.73046875 C171.51708496 231.5311377 171.67870117 232.33180664 171.84521484 233.15673828 C176.37801121 256.6776667 172.27871083 278.37001483 164.35546875 300.73046875 C161.00793742 297.47087607 157.96025004 294.12840367 155.04296875 290.48046875 C149.46125024 283.58922892 143.71087299 276.9229139 137.35546875 270.73046875 C136.86949219 270.22257812 136.38351562 269.7146875 135.8828125 269.19140625 C131.59219491 264.7486391 126.95917637 260.88998225 122.140625 257.03125 C119.63418985 254.96071661 117.31905131 252.79788109 114.98046875 250.54296875 C101.71671078 238.43072675 85.04398913 229.37687078 69.41796875 220.66796875 C68.69673828 220.25998047 67.97550781 219.85199219 67.23242188 219.43164062 C61.41767166 216.18870063 55.44785522 213.41001273 49.35546875 210.73046875 C48.04920532 210.15147827 48.04920532 210.15147827 46.71655273 209.56079102 C24.12892145 199.64738885 0.8651691 191.43101219 -23.27490234 186.24072266 C-27.28154677 185.37796901 -31.27555608 184.46225433 -35.26953125 183.54296875 C-35.97505127 183.38779785 -36.68057129 183.23262695 -37.4074707 183.07275391 C-40.67660481 182.32731166 -42.81462734 181.61707136 -45.64453125 179.73046875 C-46.39648438 177.49072266 -46.39648438 177.49072266 -46.92578125 174.70703125 C-47.12816406 173.68480469 -47.33054687 172.66257812 -47.5390625 171.609375 C-47.73886719 170.53558594 -47.93867187 169.46179688 -48.14453125 168.35546875 C-48.75228297 165.20692272 -49.36748117 162.06177651 -50.01855469 158.921875 C-50.44171867 156.76446484 -50.7976084 154.59294137 -51.09082031 152.4140625 C-51.98462868 146.51005075 -51.98462868 146.51005075 -55.7265625 142.16845703 C-58.58949237 140.97610935 -61.37792305 140.2005893 -64.39453125 139.48046875 C-66.02769287 139.02462402 -66.02769287 139.02462402 -67.69384766 138.55957031 C-71.33159294 137.56053247 -74.98407214 136.64254638 -78.64453125 135.73046875 C-81.36746018 135.02816358 -84.08789631 134.31636325 -86.80859375 133.60546875 C-90.84066803 132.55386597 -94.87388174 131.51130608 -98.92089844 130.51855469 C-104.54166187 129.12544913 -110.01598009 127.67716459 -115.43359375 125.62109375 C-125.12146283 122.01499911 -131.35971742 121.19178381 -141.20703125 124.66796875 C-143.2282084 125.33234945 -145.25038327 125.99370094 -147.2734375 126.65234375 C-148.31516113 126.99716797 -149.35688477 127.34199219 -150.43017578 127.69726562 C-155.7928018 129.42099594 -161.21566364 130.91870437 -166.64453125 132.41796875 C-167.69793701 132.71155273 -168.75134277 133.00513672 -169.83666992 133.30761719 C-175.55190022 134.89535637 -181.27830755 136.42734677 -187.01953125 137.91796875 C-192.33585388 139.3119194 -197.44827272 141.00546543 -202.5703125 142.99609375 C-204.64453125 143.73046875 -204.64453125 143.73046875 -206.64453125 143.73046875 C-206.78044678 144.73601807 -206.9163623 145.74156738 -207.05639648 146.77758789 C-207.61636241 150.54114465 -208.30240258 154.24715004 -209.0546875 157.9765625 C-209.18644882 158.63253922 -209.31821014 159.28851593 -209.45396423 159.96437073 C-209.8698276 162.0326094 -210.28838054 164.10029269 -210.70703125 166.16796875 C-210.99171549 167.58134416 -211.27622232 168.99475531 -211.56054688 170.40820312 C-212.25316018 173.84937351 -212.94818448 177.29005167 -213.64453125 180.73046875 C-217.01386318 181.88360909 -220.33699479 182.96823093 -223.81640625 183.73046875 C-224.5640625 183.89546875 -225.31171875 184.06046875 -226.08203125 184.23046875 C-226.84515625 184.39546875 -227.60828125 184.56046875 -228.39453125 184.73046875 C-229.1421875 184.89546875 -229.88984375 185.06046875 -230.66015625 185.23046875 C-233.76639883 185.91128904 -236.86839028 186.58793855 -239.99633789 187.16235352 C-247.03753156 188.46422422 -253.76226771 190.50327968 -260.58203125 192.66796875 C-268.56520451 195.18283163 -276.55035351 197.59604169 -284.64453125 199.73046875 C-284.09842073 196.57482452 -283.42496977 193.92974356 -281.9375 191.09375 C-281.43077759 190.11124268 -281.43077759 190.11124268 -280.91381836 189.10888672 C-280.55682861 188.42713379 -280.19983887 187.74538086 -279.83203125 187.04296875 C-276.31042602 180.1442554 -276.31042602 180.1442554 -273.08203125 173.10546875 C-272.77136719 172.39132812 -272.46070313 171.6771875 -272.140625 170.94140625 C-271.09882794 166.29843667 -272.27206203 163.3264195 -274.75390625 159.35546875 C-275.62869079 158.14320303 -276.50916356 156.93502684 -277.39453125 155.73046875 C-287.57771092 141.23170716 -290.69834676 124.26940988 -289.64453125 106.73046875 C-288.63841932 100.98597021 -286.34773696 95.86141196 -283.64453125 90.73046875 C-283.33273926 90.12847656 -283.02094727 89.52648437 -282.69970703 88.90625 C-275.79133013 75.91385122 -266.97397338 68.69109793 -253.05859375 64.1796875 C-247.39364923 62.52229499 -241.75049679 61.89201813 -235.89453125 61.29296875 C-203.1802835 57.48338429 -169.45066666 40.64891775 -145.64453125 17.73046875 C-142.96823457 18.95663815 -141.55713201 19.82557969 -139.51953125 22.04296875 C-131.22186831 29.79947976 -120.42901682 32.23939309 -109.34375 31.9765625 C-101.63173722 31.27344122 -95.11972432 28.21681292 -89.64453125 22.73046875 C-81.64050298 12.52894174 -79.18817297 3.31497473 -79.66625977 -9.38134766 C-79.89070243 -16.40101328 -79.89070243 -16.40101328 -77.64453125 -19.26953125 C-74.88638778 -20.18891241 -72.48245076 -20.79654466 -69.64453125 -21.26953125 C-68.98453125 -21.39328125 -68.32453125 -21.51703125 -67.64453125 -21.64453125 C-43.06003468 -25.36945497 -18.4871297 -15.86561648 0 0 Z "
     transform="translate(596.64453125,106.26953125)"
     style="fill:#ef273a;fill-opacity:1"
     id="path8" />
  <path
     d="M0 0 C3.22745524 1.41901662 5.37258107 3.12855765 7.85058594 5.62353516 C8.59105164 6.36415192 9.33151733 7.10476868 10.09442139 7.86782837 C10.88310608 8.66683563 11.67179077 9.4658429 12.484375 10.2890625 C13.29996887 11.10748627 14.11556274 11.92591003 14.95587158 12.76913452 C17.55864562 15.38309973 20.15437762 18.00393505 22.75 20.625 C24.5138634 22.39889454 26.2781809 24.17233766 28.04296875 25.9453125 C32.36726136 30.29165142 36.6857933 34.64365081 41 39 C40.06844561 40.26068442 39.13424522 41.51941383 38.19897461 42.77734375 C37.67903427 43.47851318 37.15909393 44.17968262 36.62339783 44.90209961 C34.13158372 48.12224547 31.36827113 51.05421118 28.5625 54 C27.41061884 55.22447123 26.25956903 56.4497251 25.109375 57.67578125 C24.56732422 58.25279785 24.02527344 58.82981445 23.46679688 59.42431641 C21.1667262 61.89513134 18.957255 64.43932565 16.75390625 66.99609375 C13.64418268 70.54907414 10.43106365 74.00971342 7.234375 77.484375 C5.00986519 79.90167247 5.00986519 79.90167247 3.328125 82.328125 C2.88984375 82.87984375 2.4515625 83.4315625 2 84 C0 84 0 84 -1.41015625 82.6015625 C-1.95542969 81.94929688 -2.50070312 81.29703125 -3.0625 80.625 C-5.82817409 77.37058933 -8.63308192 74.16586167 -11.5 71 C-14.7626799 67.38459795 -17.9857495 63.7391044 -21.18359375 60.06640625 C-23.28916488 57.67103608 -25.42448688 55.30394858 -27.5625 52.9375 C-28.68978516 51.67873047 -28.68978516 51.67873047 -29.83984375 50.39453125 C-31.19032769 48.89752103 -32.5553539 47.41335855 -33.94140625 45.94921875 C-35.625 44.125 -35.625 44.125 -38 41 C-37.71192377 37.77291658 -36.50285206 36.13295827 -34.234375 33.90625 C-33.39326172 33.07287109 -33.39326172 33.07287109 -32.53515625 32.22265625 C-31.94605469 31.65417969 -31.35695313 31.08570313 -30.75 30.5 C-29.88955078 29.64728516 -29.88955078 29.64728516 -29.01171875 28.77734375 C-25.81310237 25.6370165 -22.50639776 22.79595116 -19 20 C-14.72461706 15.89478155 -10.7209276 11.52831549 -6.6875 7.1875 C-6.04232422 6.49462891 -5.39714844 5.80175781 -4.73242188 5.08789062 C-3.15412839 3.39268651 -1.57667698 1.69670746 0 0 Z "
     transform="translate(466,374)"
     style="fill: #FBFBFB;"
     id="path10" />
  <path
     d="M -2.0788044,-2.7184366 C -1.6485615,6.6904763 2.0460314,14.702957 4,24 -40.702904,47.237825 -67.304239,83.648986 -93.604248,118.22614 -96.907546,102.79681 -89.048093,85.762092 -81,73 -58.442174,36.768391 -28.699402,16.404516 -2.0788044,-2.7184366 Z"
     transform="translate(255,308)"
     style="fill:#ef273a;fill-opacity:1"
     id="path12"
     sodipodi:nodetypes="ccccc" />
  <path
     d="M0 0 C0.763125 0.45117188 1.52625 0.90234375 2.3125 1.3671875 C4 3 4 3 4.10546875 5.60205078 C4.07066406 6.39337402 4.03585937 7.18469727 4 8 C2.95042114 8.44484741 2.95042114 8.44484741 1.87963867 8.89868164 C-1.35544134 10.27661078 -4.58390355 11.66945077 -7.8125 13.0625 C-8.91271484 13.52849609 -10.01292969 13.99449219 -11.14648438 14.47460938 C-29.1433489 22.27855948 -40.04323007 31.75764944 -48 50 C-50.92919787 49.68332996 -52.53392872 49.50702862 -54.56689453 47.29541016 C-61.09405508 36.84083376 -61.06508513 19.9141384 -60 8 C-58.22888925 0.44557795 -54.34078247 -5.47821023 -48 -10 C-32.00494273 -17.7924638 -13.82559107 -8.32264199 0 0 Z "
     transform="translate(508,51)"
     style="fill:#ef273a;fill-opacity:1"
     id="path14" />
</svg>
